<?xml version="1.0" encoding="utf-8"?>
<!-- Generator: Adobe Illustrator 24.2.1, SVG Export Plug-In . SVG Version: 6.00 Build 0)  -->
<svg version="1.1" id="Layer_1" xmlns="http://www.w3.org/2000/svg" xmlns:xlink="http://www.w3.org/1999/xlink" x="0px" y="0px"
	 viewBox="0 0 500 250" style="enable-background:new 0 0 500 250;" xml:space="preserve">
<style type="text/css">
	.st0{fill:#161741;}
	.st1{fill:#FFFFFF;}
</style>
<g>
	<path class="st0" d="M22.6,158.06V91.94c0-2.86,0.28-5.7,0.84-8.51c0.56-2.81,1.39-5.54,2.48-8.18c1.1-2.65,2.44-5.16,4.03-7.54
		c1.59-2.38,3.4-4.59,5.43-6.61c2.03-2.03,4.23-3.84,6.61-5.43c2.38-1.59,4.9-2.94,7.54-4.03c2.65-1.1,5.38-1.92,8.19-2.48
		c2.81-0.56,5.65-0.84,8.51-0.84h66.12c2.86,0,5.7,0.28,8.51,0.84c2.81,0.56,5.54,1.39,8.19,2.48c2.65,1.1,5.16,2.44,7.54,4.03
		c2.38,1.59,4.59,3.4,6.61,5.43c2.03,2.03,3.84,4.23,5.43,6.61c1.59,2.38,2.94,4.9,4.03,7.54c1.1,2.65,1.92,5.37,2.48,8.18
		c0.56,2.81,0.84,5.65,0.84,8.51v66.12c0,2.86-0.28,5.7-0.84,8.51c-0.56,2.81-1.39,5.54-2.48,8.19c-1.1,2.65-2.44,5.16-4.03,7.54
		c-1.59,2.38-3.4,4.59-5.43,6.61c-2.03,2.02-4.23,3.83-6.61,5.42c-2.38,1.59-4.9,2.94-7.54,4.03c-2.65,1.1-5.37,1.92-8.19,2.48
		c-2.81,0.56-5.65,0.84-8.51,0.84H66.23c-2.86,0-5.7-0.28-8.51-0.84c-2.81-0.56-5.54-1.39-8.19-2.48c-2.65-1.1-5.16-2.44-7.54-4.03
		c-2.38-1.59-4.59-3.4-6.61-5.42c-2.03-2.03-3.83-4.23-5.43-6.61c-1.59-2.38-2.93-4.9-4.03-7.54c-1.1-2.65-1.93-5.38-2.48-8.19
		C22.88,163.76,22.6,160.92,22.6,158.06z"/>
	<path class="st1" d="M71.03,78.53c-10.66,0-19.34,8.68-19.34,19.34v54.26c0,10.66,8.67,19.34,19.34,19.34h56.52
		c10.66,0,19.34-8.68,19.34-19.34V97.87c0-10.66-8.67-19.34-19.34-19.34H71.03z M127.55,176.78H71.03
		c-13.59,0-24.65-11.06-24.65-24.65V97.87c0-13.59,11.06-24.65,24.65-24.65h56.52c13.59,0,24.65,11.06,24.65,24.65v54.26
		C152.2,165.72,141.14,176.78,127.55,176.78z"/>
	<path class="st1" d="M125.52,89.83c0,0.13-0.01,0.25-0.01,0.37c0,5.96,0,11.92,0,17.88v0.35h-5.82v-8.66l-0.09-0.06
		c-0.09,0.12-0.18,0.26-0.29,0.36c-0.98,0.97-1.97,1.93-2.96,2.9c-0.83,0.82-1.67,1.63-2.5,2.44c-0.8,0.78-1.6,1.57-2.4,2.35
		c-0.83,0.82-1.66,1.64-2.5,2.45c-0.81,0.8-1.63,1.59-2.45,2.38c-0.79,0.78-1.59,1.56-2.38,2.33c-0.78,0.76-1.57,1.52-2.35,2.3
		c-0.85,0.84-1.69,1.7-2.55,2.54c-0.82,0.81-1.65,1.62-2.47,2.43c-0.5,0.49-1.09,0.91-1.49,1.47c-0.51,0.72-1.19,1.28-1.79,1.9
		c-1.24,1.27-2.52,2.51-3.8,3.75c-0.1,0.1-0.29,0.11-0.39,0.2c-0.44,0.41-0.88,0.83-1.31,1.25c-1.1,1.07-2.19,2.15-3.28,3.23
		c-0.97,0.95-1.96,1.88-2.9,2.86c-0.75,0.8-1.34,1.72-1.8,2.72c-0.49,1.05-0.85,2.13-0.99,3.28c-0.07,0.59-0.17,1.19-0.15,1.78
		c0.04,1.49,0.32,2.93,0.9,4.31c0.45,1.06,1.03,2.05,1.77,2.92c0.85,1.01,1.84,1.85,2.97,2.53c0.82,0.5,1.68,0.88,2.6,1.15
		c0.57,0.17,1.17,0.29,1.77,0.36c0.72,0.08,1.46,0.11,2.19,0.11c5.37,0.01,10.74,0.01,16.11-0.01c0.7-0.01,1.4-0.17,2.1-0.29
		c0.92-0.16,1.79-0.48,2.64-0.86c0.95-0.42,1.83-0.94,2.64-1.59c0.48-0.39,0.95-0.81,1.4-1.24c0.76-0.73,1.37-1.58,1.92-2.48
		c0.73-1.21,1.24-2.51,1.55-3.88c0.11-0.5,0.17-1.02,0.22-1.53c0.05-0.49,0.06-0.99,0.06-1.49c0.02-1.43-0.25-2.8-0.71-4.15
		c-0.43-1.28-1.06-2.46-1.87-3.54c-0.84-1.12-1.83-2.1-2.99-2.92c-1.1-0.78-2.28-1.4-3.57-1.8c-0.74-0.22-1.5-0.41-2.27-0.5
		c-1.02-0.12-2.05-0.17-3.08-0.17c-3.88-0.02-7.75-0.01-11.63-0.01c-0.02,0-0.03-0.01-0.07-0.01c0.04-0.06,0.07-0.1,0.11-0.14
		c0.77-0.77,1.54-1.54,2.31-2.31c1.07-1.06,2.15-2.12,3.23-3.17c0.07-0.07,0.2-0.12,0.29-0.12c2.73-0.01,5.45-0.04,8.17,0.01
		c1.31,0.02,2.6,0.29,3.86,0.63c1.51,0.41,2.94,1,4.3,1.77c1.12,0.63,2.19,1.34,3.13,2.21c0.67,0.62,1.32,1.27,1.94,1.94
		c1.35,1.46,2.34,3.16,3.14,4.97c0.47,1.06,0.81,2.18,1.07,3.31c0.16,0.71,0.26,1.43,0.31,2.15c0.08,1.03,0.12,2.06,0.11,3.09
		c0,0.58-0.13,1.17-0.2,1.75c-0.12,1-0.38,1.98-0.67,2.94c-0.62,2.01-1.59,3.85-2.83,5.54c-0.7,0.96-1.5,1.84-2.37,2.65
		c-1.08,1-2.26,1.86-3.54,2.59c-1.24,0.7-2.54,1.28-3.91,1.67c-0.9,0.26-1.83,0.42-2.75,0.59c-1.1,0.21-2.22,0.22-3.33,0.22
		c-5.39,0-10.78,0-16.16-0.01c-0.49,0-0.99-0.07-1.47-0.15c-0.76-0.12-1.54-0.23-2.28-0.43c-0.83-0.22-1.64-0.51-2.44-0.83
		c-1.11-0.45-2.14-1.05-3.13-1.74c-1.04-0.73-1.99-1.56-2.84-2.5c-0.97-1.06-1.8-2.24-2.48-3.53c-0.69-1.3-1.22-2.66-1.56-4.09
		c-0.16-0.67-0.29-1.35-0.34-2.04c-0.08-1.04-0.14-2.1-0.09-3.14c0.03-0.82,0.2-1.64,0.34-2.45c0.27-1.5,0.8-2.92,1.49-4.28
		c0.64-1.26,1.39-2.46,2.36-3.49c0.86-0.92,1.75-1.81,2.63-2.7c0.96-0.96,1.94-1.9,2.91-2.85c0.09-0.08,0.17-0.16,0.27-0.25
		c-0.36-0.22-0.71-0.41-1.04-0.64c-0.65-0.44-1.31-0.87-1.92-1.36c-0.63-0.51-1.24-1.05-1.8-1.63c-0.9-0.94-1.71-1.95-2.39-3.07
		c-0.31-0.52-0.62-1.04-0.9-1.58c-0.64-1.27-1.12-2.6-1.44-3.98c-0.19-0.81-0.3-1.63-0.43-2.44c-0.19-1.19-0.09-2.39-0.1-3.59
		c-0.01-0.68-0.01-1.37,0.06-2.05c0.07-0.72,0.22-1.44,0.34-2.17c0.17-0.99,0.49-1.95,0.85-2.89c0.39-0.99,0.83-1.96,1.41-2.85
		c0.41-0.63,0.79-1.28,1.25-1.87c0.66-0.85,1.36-1.68,2.2-2.38c0.54-0.45,1.05-0.94,1.62-1.34c0.69-0.49,1.43-0.93,2.16-1.37
		c1.1-0.66,2.29-1.13,3.51-1.5c0.85-0.26,1.72-0.42,2.59-0.59c0.51-0.1,1.03-0.11,1.55-0.17c0.03-0.01,0.06-0.04,0.09-0.07h8.44
		c-0.01,0.07-0.02,0.14-0.02,0.21c0,1.66,0,3.32,0,4.98c0,0.19,0,0.38,0,0.59c-0.13,0-0.22,0-0.32,0c-2.46,0.02-4.93,0.04-7.4,0.06
		c-0.84,0-1.66,0.12-2.46,0.35c-0.78,0.23-1.56,0.47-2.31,0.79c-1.12,0.47-2.15,1.11-3.05,1.93c-0.64,0.59-1.28,1.19-1.84,1.85
		c-0.71,0.83-1.27,1.77-1.72,2.77c-0.44,0.97-0.8,1.98-0.95,3.04c-0.11,0.81-0.22,1.61-0.26,2.42c-0.04,0.76,0.01,1.52,0.05,2.28
		c0.04,0.67,0.09,1.35,0.22,2.01c0.3,1.61,0.92,3.11,1.8,4.48c0.47,0.75,1.02,1.47,1.63,2.11c0.62,0.64,1.33,1.2,2.05,1.73
		c0.86,0.64,1.82,1.13,2.84,1.48c0.06,0.02,0.17,0.01,0.22-0.04c0.22-0.17,0.42-0.36,0.62-0.56c0.81-0.8,1.62-1.59,2.43-2.39
		c0.89-0.88,1.77-1.77,2.66-2.65c0.74-0.73,1.49-1.46,2.23-2.18c0.84-0.82,1.68-1.64,2.52-2.46c0.8-0.78,1.59-1.56,2.38-2.34
		c0.83-0.81,1.65-1.62,2.48-2.42c0.83-0.81,1.65-1.62,2.48-2.43c0.81-0.8,1.63-1.59,2.44-2.39c0.82-0.81,1.65-1.62,2.47-2.42
		c0.82-0.81,1.65-1.62,2.48-2.43c0.81-0.79,1.62-1.58,2.43-2.36c0.06-0.06,0.12-0.14,0.2-0.24c-0.13-0.01-0.21-0.01-0.29-0.01
		c-2.86,0-5.73,0-8.59,0.01c-0.24,0-0.31-0.06-0.31-0.31c0.01-1.72,0.01-3.44,0.01-5.17c0-0.1-0.01-0.21-0.02-0.31
		C112.69,89.83,119.1,89.83,125.52,89.83z"/>

</g>
</svg>
