<svg xmlns="http://www.w3.org/2000/svg" width="214.248" height="67.57" viewBox="0 0 214.248 67.57">
  <g id="Group_2718" data-name="Group 2718" transform="translate(-364.108 -119.7)">
    <g id="Group_2712" data-name="Group 2712" transform="translate(364.108 119.7)">
      <path id="Path_2741" data-name="Path 2741" d="M414.7,187.27H381.086a17,17,0,0,1-16.978-16.977V136.678A17,17,0,0,1,381.086,119.7H414.7a17,17,0,0,1,16.977,16.978v33.615A17,17,0,0,1,414.7,187.27Zm-33.615-63.708a13.13,13.13,0,0,0-13.115,13.116v33.615a13.13,13.13,0,0,0,13.115,13.115H414.7a13.13,13.13,0,0,0,13.115-13.115V136.678A13.13,13.13,0,0,0,414.7,123.562Z" transform="translate(-364.108 -119.7)" fill="#fff"/>
    </g>
    <g id="Group_2713" data-name="Group 2713" transform="translate(447.029 137.073)">
      <path id="Path_2742" data-name="Path 2742" d="M599.8,190.94a19.345,19.345,0,0,1-2.984-.2,11.428,11.428,0,0,1-2.34-.61,22.428,22.428,0,0,1-2.17-.983v-3.73a10.666,10.666,0,0,0,3.188,1.729,11.9,11.9,0,0,0,4.035.678,4.8,4.8,0,0,0,3.171-.882,2.96,2.96,0,0,0,1.034-2.374,2.5,2.5,0,0,0-.78-1.916,6.372,6.372,0,0,0-2.018-1.221q-1.238-.491-2.662-1.034-1.086-.373-2.136-.847a8.472,8.472,0,0,1-1.9-1.17,5,5,0,0,1-1.356-1.78,6.687,6.687,0,0,1-.068-4.951,6.156,6.156,0,0,1,1.339-2.085,6.373,6.373,0,0,1,2.374-1.492,10.009,10.009,0,0,1,3.544-.56,14.293,14.293,0,0,1,2.357.17,9.453,9.453,0,0,1,1.9.525q.9.357,1.95.865v3.7q-.848-.542-1.712-1.034a9.078,9.078,0,0,0-1.882-.8,8.736,8.736,0,0,0-2.272-.339,6.272,6.272,0,0,0-2.34.373,3.044,3.044,0,0,0-1.39,1.051,2.6,2.6,0,0,0-.475,1.526,2.752,2.752,0,0,0,.61,1.882,4.6,4.6,0,0,0,1.678,1.153,25.541,25.541,0,0,0,2.492.9q1.254.407,2.442.916a9.508,9.508,0,0,1,2.119,1.238,5.26,5.26,0,0,1,1.475,1.814,5.956,5.956,0,0,1,.543,2.679,7.207,7.207,0,0,1-.8,3.323,6.068,6.068,0,0,1-2.509,2.526A9.024,9.024,0,0,1,599.8,190.94Z" transform="translate(-592.301 -167.509)" fill="#fff"/>
      <path id="Path_2743" data-name="Path 2743" d="M647.343,193.173a5.205,5.205,0,0,1-3.645-1.221,4.619,4.619,0,0,1-1.339-3.594v-9.7h-2.746v-2.95h2.746v-4.747h3.662v4.747h4.137v2.95h-4.137v8.986a3.059,3.059,0,0,0,.424,1.78,1.817,1.817,0,0,0,1.577.593,4.491,4.491,0,0,0,1.153-.153,3.955,3.955,0,0,0,.983-.39v3.188a6.576,6.576,0,0,1-1.356.373A8.608,8.608,0,0,1,647.343,193.173Z" transform="translate(-622.42 -169.707)" fill="#fff"/>
      <path id="Path_2744" data-name="Path 2744" d="M682.956,200.9a12.7,12.7,0,0,1-2.56-.254,6.744,6.744,0,0,1-2.221-.865,4.508,4.508,0,0,1-1.577-1.678,5.417,5.417,0,0,1-.593-2.662,5.906,5.906,0,0,1,.746-3.12,4.608,4.608,0,0,1,2.12-1.831,8.106,8.106,0,0,1,3.306-.61,11.444,11.444,0,0,1,2.34.221,10.994,10.994,0,0,1,1.882.559,6.155,6.155,0,0,1,1.407.78l.373,2.34a8.074,8.074,0,0,0-2-.848,9.5,9.5,0,0,0-2.713-.373,5.232,5.232,0,0,0-2.933.678,2.3,2.3,0,0,0-1,2.035,2.334,2.334,0,0,0,.577,1.645,3.351,3.351,0,0,0,1.441.915,5.686,5.686,0,0,0,1.814.288,11.654,11.654,0,0,0,2.95-.271,1.191,1.191,0,0,0,.949-1.254v-7.121a3.079,3.079,0,0,0-1.1-2.628,5.069,5.069,0,0,0-3.1-.831,10.157,10.157,0,0,0-2.917.457,7.46,7.46,0,0,0-2.543,1.272v-3.323a9.238,9.238,0,0,1,2.781-1.017,16.989,16.989,0,0,1,3.764-.407,11.111,11.111,0,0,1,1.916.169,6.961,6.961,0,0,1,1.814.577,5.461,5.461,0,0,1,1.509,1.068,4.864,4.864,0,0,1,1.051,1.611,5.881,5.881,0,0,1,.39,2.238l-.034,8.138a3.209,3.209,0,0,1-1.034,2.56,5.756,5.756,0,0,1-2.8,1.221A22.442,22.442,0,0,1,682.956,200.9Z" transform="translate(-645.588 -177.371)" fill="#fff"/>
      <path id="Path_2745" data-name="Path 2745" d="M728.727,200.4V184.933a12.181,12.181,0,0,1,1.628-.746,17.966,17.966,0,0,1,2.814-.831,15.333,15.333,0,0,1,3.289-.356,5.9,5.9,0,0,1,1.39.136,5.426,5.426,0,0,1,.916.305v2.848q-.747-.1-1.611-.136t-1.712,0q-.848.034-1.662.136t-1.492.2v13.9Z" transform="translate(-679.152 -177.371)" fill="#fff"/>
      <path id="Path_2746" data-name="Path 2746" d="M767.25,193.173a5.205,5.205,0,0,1-3.646-1.221,4.618,4.618,0,0,1-1.339-3.594v-9.7h-2.747v-2.95h2.747v-4.747h3.662v4.747h4.137v2.95h-4.137v8.986a3.058,3.058,0,0,0,.424,1.78,1.816,1.816,0,0,0,1.577.593,4.491,4.491,0,0,0,1.153-.153,3.957,3.957,0,0,0,.983-.39v3.188a6.571,6.571,0,0,1-1.356.373A8.608,8.608,0,0,1,767.25,193.173Z" transform="translate(-698.755 -169.707)" fill="#fff"/>
      <path id="Path_2747" data-name="Path 2747" d="M792.738,191.247l8.816-22.618h3.968l8.579,22.618h-3.934l-7.562-20.786,1.424-.136-7.562,20.922Zm4.34-6.137,1.085-3.052h10.715l.339,3.052Z" transform="translate(-719.903 -168.222)" fill="#fff"/>
      <path id="Path_2748" data-name="Path 2748" d="M865.917,200.81a10.339,10.339,0,0,1-1.594-.153,12.186,12.186,0,0,1-1.916-.475,5.277,5.277,0,0,1-1.645-.865l.916-1.153v8.986h-3.526V186.6a2.493,2.493,0,0,1,.661-1.763,4.663,4.663,0,0,1,1.729-1.136,10.422,10.422,0,0,1,2.391-.61,18.979,18.979,0,0,1,2.645-.187,9.809,9.809,0,0,1,4.1.848,6.46,6.46,0,0,1,2.984,2.865,11.415,11.415,0,0,1,1.119,5.51,10.713,10.713,0,0,1-.915,4.595,6.83,6.83,0,0,1-2.679,3.018A8.1,8.1,0,0,1,865.917,200.81Zm-.645-3.018a5.133,5.133,0,0,0,2.713-.661,4.051,4.051,0,0,0,1.628-1.933,8.008,8.008,0,0,0,.543-3.137,11.244,11.244,0,0,0-.39-3.068,4.177,4.177,0,0,0-1.407-2.187,4.573,4.573,0,0,0-2.916-.814,8.238,8.238,0,0,0-2.73.373q-1.034.374-1.034,1.017v9.427a7.2,7.2,0,0,0,1.8.746A7.129,7.129,0,0,0,865.272,197.792Z" transform="translate(-761.547 -177.311)" fill="#fff"/>
      <path id="Path_2749" data-name="Path 2749" d="M918.453,200.81a10.342,10.342,0,0,1-1.594-.153,12.188,12.188,0,0,1-1.916-.475,5.271,5.271,0,0,1-1.645-.865l.916-1.153v8.986h-3.527V186.6a2.493,2.493,0,0,1,.661-1.763,4.663,4.663,0,0,1,1.729-1.136,10.428,10.428,0,0,1,2.391-.61,18.978,18.978,0,0,1,2.645-.187,9.809,9.809,0,0,1,4.1.848,6.46,6.46,0,0,1,2.984,2.865,11.421,11.421,0,0,1,1.118,5.51,10.717,10.717,0,0,1-.915,4.595,6.832,6.832,0,0,1-2.679,3.018A8.1,8.1,0,0,1,918.453,200.81Zm-.645-3.018a5.132,5.132,0,0,0,2.713-.661,4.052,4.052,0,0,0,1.628-1.933,8,8,0,0,0,.542-3.137,11.247,11.247,0,0,0-.39-3.068,4.176,4.176,0,0,0-1.407-2.187,4.574,4.574,0,0,0-2.917-.814,8.238,8.238,0,0,0-2.73.373q-1.035.374-1.034,1.017v9.427a7.186,7.186,0,0,0,3.594.983Z" transform="translate(-794.992 -177.311)" fill="#fff"/>
    </g>
    <g id="Group_2714" data-name="Group 2714" transform="translate(447.96 165.363)">
      <path id="Path_2750" data-name="Path 2750" d="M594.863,253.221v-7.858h5.148v1.1h-3.841v2.274h3.358v1.107h-3.37v2.286h3.853v1.1Z" transform="translate(-594.863 -245.363)" fill="#fff"/>
      <path id="Path_2751" data-name="Path 2751" d="M613.861,253.221v-7.858h3.488a2.721,2.721,0,0,1,1.885.6,2.283,2.283,0,0,1,.659,1.785,2.507,2.507,0,0,1-.253,1.125,2.229,2.229,0,0,1-.719.842,2.173,2.173,0,0,1-1.125.377l.153-.412,2.321,3.546h-1.614l-2.18-3.522.6.553h-1.92v2.969Zm1.3-4.029h1.826a1.7,1.7,0,0,0,1.16-.342,1.319,1.319,0,0,0,.383-1.037,1.484,1.484,0,0,0-.307-1,1.3,1.3,0,0,0-1.025-.353h-2.038Z" transform="translate(-606.958 -245.363)" fill="#fff"/>
      <path id="Path_2752" data-name="Path 2752" d="M636.717,250.406v2.815h-1.3v-7.858h3.111a3.124,3.124,0,0,1,2.08.625,2.306,2.306,0,0,1,.736,1.861,2.416,2.416,0,0,1-.736,1.9,3.011,3.011,0,0,1-2.08.66Zm0-1.108h1.649a2.524,2.524,0,0,0,.825-.112,1.091,1.091,0,0,0,.736-.771,2.039,2.039,0,0,0,.065-.519,2.179,2.179,0,0,0-.065-.53,1.119,1.119,0,0,0-.241-.465,1.167,1.167,0,0,0-.495-.324,2.415,2.415,0,0,0-.825-.118h-1.649Z" transform="translate(-620.683 -245.363)" fill="#fff"/>
    </g>
    <path id="Path_2753" data-name="Path 2753" d="M442.146,162.935v-11.96H429.8v3.72h5.923l-17.954,17.572a8.516,8.516,0,0,1-5.614-8V163.2a8.511,8.511,0,0,1,8.5-8.5h4.527v-3.72H420.66A12.235,12.235,0,0,0,408.439,163.2v1.073a12.233,12.233,0,0,0,6.482,10.788l-3.137,3.07a11.131,11.131,0,0,0,7.786,19.086h10.354a12.221,12.221,0,1,0,0-24.442h-7.349l15.851-15.513v5.677Zm-12.221,13.556a8.5,8.5,0,1,1,0,17H419.57a7.411,7.411,0,0,1-5.184-12.708l4.517-4.421a12.291,12.291,0,0,0,1.757.126Z" transform="translate(-28.222 -19.91)" fill="#fff"/>
  </g>
</svg>
